<?xml version="1.0" encoding="utf-8" ?>
<svg baseProfile="full" height="1594.4881500000001" version="1.1" width="1913.38578" xmlns="http://www.w3.org/2000/svg" xmlns:ev="http://www.w3.org/2001/xml-events" xmlns:xlink="http://www.w3.org/1999/xlink"><defs /><rect fill="white" height="1594.4881500000001" opacity="1" stroke-width="0" width="1913.38578" x="0.0" y="0.0" /><g><g id="vlines" stroke="lightgray"><line x1="0.0" x2="0.0" y1="70.86614" y2="1559.05508" /><text fill="black" font-family="Verdana" font-size="12" stroke="black" stroke-width="0" x="3.543307" y="67.322833">M 17</text><text fill="black" font-family="Verdana" font-size="16" font-weight="bold" stroke="black" stroke-width="0" x="3.543307" y="53.149605">42</text><line x1="35.43307" x2="35.43307" y1="70.86614" y2="1559.05508" /><text fill="black" font-family="Verdana" font-size="12" stroke="black" stroke-width="0" x="38.976377" y="67.322833">T 18</text><line x1="70.86614" x2="70.86614" y1="70.86614" y2="1559.05508" /><text fill="black" font-family="Verdana" font-size="12" stroke="black" stroke-width="0" x="74.409447" y="67.322833">W 19</text><line x1="106.29921" x2="106.29921" y1="70.86614" y2="1559.05508" /><text fill="black" font-family="Verdana" font-size="12" stroke="black" stroke-width="0" x="109.842517" y="67.322833">T 20</text><line x1="141.73228" x2="141.73228" y1="70.86614" y2="1559.05508" /><text fill="black" font-family="Verdana" font-size="12" stroke="black" stroke-width="0" x="145.275587" y="67.322833">F 21</text><line x1="177.16535" x2="177.16535" y1="70.86614" y2="1559.05508" /><rect fill="gray" height="1488.18894" opacity="0.7" stroke="lightgray" stroke-width="1" width="35.43307" x="177.16535" y="70.86614" /><text fill="black" font-family="Verdana" font-size="12" stroke="black" stroke-width="0" x="180.708657" y="67.322833">S 22</text><line x1="212.59842" x2="212.59842" y1="70.86614" y2="1559.05508" /><rect fill="gray" height="1488.18894" opacity="0.7" stroke="lightgray" stroke-width="1" width="35.43307" x="212.59842" y="70.86614" /><text fill="black" font-family="Verdana" font-size="12" stroke="black" stroke-width="0" x="216.141727" y="67.322833">S 23</text><line x1="248.03149000000002" x2="248.03149000000002" y1="70.86614" y2="1559.05508" /><text fill="black" font-family="Verdana" font-size="12" stroke="black" stroke-width="0" x="251.574797" y="67.322833">M 24</text><text fill="black" font-family="Verdana" font-size="16" font-weight="bold" stroke="black" stroke-width="0" x="251.574797" y="53.149605">43</text><line x1="283.46456" x2="283.46456" y1="70.86614" y2="1559.05508" /><text fill="black" font-family="Verdana" font-size="12" stroke="black" stroke-width="0" x="287.007867" y="67.322833">T 25</text><line x1="318.89763" x2="318.89763" y1="70.86614" y2="1559.05508" /><text fill="black" font-family="Verdana" font-size="12" stroke="black" stroke-width="0" x="322.440937" y="67.322833">W 26</text><line x1="354.3307" x2="354.3307" y1="70.86614" y2="1559.05508" /><text fill="black" font-family="Verdana" font-size="12" stroke="black" stroke-width="0" x="357.874007" y="67.322833">T 27</text><line x1="389.76377" x2="389.76377" y1="70.86614" y2="1559.05508" /><text fill="black" font-family="Verdana" font-size="12" stroke="black" stroke-width="0" x="393.307077" y="67.322833">F 28</text><line x1="425.19684" x2="425.19684" y1="70.86614" y2="1559.05508" /><rect fill="gray" height="1488.18894" opacity="0.7" stroke="lightgray" stroke-width="1" width="35.43307" x="425.19684" y="70.86614" /><text fill="black" font-family="Verdana" font-size="12" stroke="black" stroke-width="0" x="428.740147" y="67.322833">S 29</text><line x1="460.62991" x2="460.62991" y1="70.86614" y2="1559.05508" /><rect fill="gray" height="1488.18894" opacity="0.7" stroke="lightgray" stroke-width="1" width="35.43307" x="460.62991" y="70.86614" /><text fill="black" font-family="Verdana" font-size="12" stroke="black" stroke-width="0" x="464.173217" y="67.322833">S 30</text><line x1="496.06298000000004" x2="496.06298000000004" y1="70.86614" y2="1559.05508" /><text fill="black" font-family="Verdana" font-size="12" stroke="black" stroke-width="0" x="499.606287" y="67.322833">M 31</text><text fill="black" font-family="Verdana" font-size="16" font-weight="bold" stroke="black" stroke-width="0" x="499.606287" y="53.149605">44</text><line x1="531.49605" x2="531.49605" y1="70.86614" y2="1559.05508" /><text fill="black" font-family="Verdana" font-size="12" stroke="black" stroke-width="0" x="535.039357" y="67.322833">T 01</text><text fill="#800000" font-family="Verdana" font-size="18" font-weight="bold" stroke="#800000" stroke-width="0" x="535.039357" y="35.43307">November</text><line x1="566.92912" x2="566.92912" y1="70.86614" y2="1559.05508" /><rect fill="#76e9ff" height="1488.18894" opacity="0.8" stroke="lightgray" stroke-width="0" width="7.086614000000001" x="581.102348" y="70.86614" /><text fill="black" font-family="Verdana" font-size="12" stroke="black" stroke-width="0" x="570.472427" y="67.322833">W 02</text><line x1="602.36219" x2="602.36219" y1="70.86614" y2="1559.05508" /><text fill="black" font-family="Verdana" font-size="12" stroke="black" stroke-width="0" x="605.905497" y="67.322833">T 03</text><line x1="637.79526" x2="637.79526" y1="70.86614" y2="1559.05508" /><text fill="black" font-family="Verdana" font-size="12" stroke="black" stroke-width="0" x="641.338567" y="67.322833">F 04</text><line x1="673.22833" x2="673.22833" y1="70.86614" y2="1559.05508" /><rect fill="gray" height="1488.18894" opacity="0.7" stroke="lightgray" stroke-width="1" width="35.43307" x="673.22833" y="70.86614" /><text fill="black" font-family="Verdana" font-size="12" stroke="black" stroke-width="0" x="676.7716369999999" y="67.322833">S 05</text><line x1="708.6614" x2="708.6614" y1="70.86614" y2="1559.05508" /><rect fill="gray" height="1488.18894" opacity="0.7" stroke="lightgray" stroke-width="1" width="35.43307" x="708.6614" y="70.86614" /><text fill="black" font-family="Verdana" font-size="12" stroke="black" stroke-width="0" x="712.204707" y="67.322833">S 06</text><line x1="744.09447" x2="744.09447" y1="70.86614" y2="1559.05508" /><text fill="black" font-family="Verdana" font-size="12" stroke="black" stroke-width="0" x="747.637777" y="67.322833">M 07</text><text fill="black" font-family="Verdana" font-size="16" font-weight="bold" stroke="black" stroke-width="0" x="747.637777" y="53.149605">45</text><line x1="779.52754" x2="779.52754" y1="70.86614" y2="1559.05508" /><text fill="black" font-family="Verdana" font-size="12" stroke="black" stroke-width="0" x="783.070847" y="67.322833">T 08</text><line x1="814.96061" x2="814.96061" y1="70.86614" y2="1559.05508" /><text fill="black" font-family="Verdana" font-size="12" stroke="black" stroke-width="0" x="818.503917" y="67.322833">W 09</text><line x1="850.39368" x2="850.39368" y1="70.86614" y2="1559.05508" /><text fill="black" font-family="Verdana" font-size="12" stroke="black" stroke-width="0" x="853.936987" y="67.322833">T 10</text><line x1="885.8267500000001" x2="885.8267500000001" y1="70.86614" y2="1559.05508" /><text fill="black" font-family="Verdana" font-size="12" stroke="black" stroke-width="0" x="889.370057" y="67.322833">F 11</text><line x1="921.25982" x2="921.25982" y1="70.86614" y2="1559.05508" /><rect fill="gray" height="1488.18894" opacity="0.7" stroke="lightgray" stroke-width="1" width="35.43307" x="921.25982" y="70.86614" /><text fill="black" font-family="Verdana" font-size="12" stroke="black" stroke-width="0" x="924.803127" y="67.322833">S 12</text><line x1="956.69289" x2="956.69289" y1="70.86614" y2="1559.05508" /><rect fill="gray" height="1488.18894" opacity="0.7" stroke="lightgray" stroke-width="1" width="35.43307" x="956.69289" y="70.86614" /><text fill="black" font-family="Verdana" font-size="12" stroke="black" stroke-width="0" x="960.236197" y="67.322833">S 13</text><line x1="992.1259600000001" x2="992.1259600000001" y1="70.86614" y2="1559.05508" /><text fill="black" font-family="Verdana" font-size="12" stroke="black" stroke-width="0" x="995.669267" y="67.322833">M 14</text><text fill="black" font-family="Verdana" font-size="16" font-weight="bold" stroke="black" stroke-width="0" x="995.669267" y="53.149605">46</text><line x1="1027.5590300000001" x2="1027.5590300000001" y1="70.86614" y2="1559.05508" /><text fill="black" font-family="Verdana" font-size="12" stroke="black" stroke-width="0" x="1031.102337" y="67.322833">T 15</text><line x1="1062.9921" x2="1062.9921" y1="70.86614" y2="1559.05508" /><text fill="black" font-family="Verdana" font-size="12" stroke="black" stroke-width="0" x="1066.535407" y="67.322833">W 16</text><line x1="1098.42517" x2="1098.42517" y1="70.86614" y2="1559.05508" /><text fill="black" font-family="Verdana" font-size="12" stroke="black" stroke-width="0" x="1101.968477" y="67.322833">T 17</text><line x1="1133.85824" x2="1133.85824" y1="70.86614" y2="1559.05508" /><text fill="black" font-family="Verdana" font-size="12" stroke="black" stroke-width="0" x="1137.401547" y="67.322833">F 18</text><line x1="1169.29131" x2="1169.29131" y1="70.86614" y2="1559.05508" /><rect fill="gray" height="1488.18894" opacity="0.7" stroke="lightgray" stroke-width="1" width="35.43307" x="1169.29131" y="70.86614" /><text fill="black" font-family="Verdana" font-size="12" stroke="black" stroke-width="0" x="1172.834617" y="67.322833">S 19</text><line x1="1204.72438" x2="1204.72438" y1="70.86614" y2="1559.05508" /><rect fill="gray" height="1488.18894" opacity="0.7" stroke="lightgray" stroke-width="1" width="35.43307" x="1204.72438" y="70.86614" /><text fill="black" font-family="Verdana" font-size="12" stroke="black" stroke-width="0" x="1208.267687" y="67.322833">S 20</text><line x1="1240.15745" x2="1240.15745" y1="70.86614" y2="1559.05508" /><text fill="black" font-family="Verdana" font-size="12" stroke="black" stroke-width="0" x="1243.700757" y="67.322833">M 21</text><text fill="black" font-family="Verdana" font-size="16" font-weight="bold" stroke="black" stroke-width="0" x="1243.700757" y="53.149605">47</text><line x1="1275.59052" x2="1275.59052" y1="70.86614" y2="1559.05508" /><text fill="black" font-family="Verdana" font-size="12" stroke="black" stroke-width="0" x="1279.1338269999999" y="67.322833">T 22</text><line x1="1311.02359" x2="1311.02359" y1="70.86614" y2="1559.05508" /><text fill="black" font-family="Verdana" font-size="12" stroke="black" stroke-width="0" x="1314.566897" y="67.322833">W 23</text><line x1="1346.45666" x2="1346.45666" y1="70.86614" y2="1559.05508" /><text fill="black" font-family="Verdana" font-size="12" stroke="black" stroke-width="0" x="1349.999967" y="67.322833">T 24</text><line x1="1381.88973" x2="1381.88973" y1="70.86614" y2="1559.05508" /><text fill="black" font-family="Verdana" font-size="12" stroke="black" stroke-width="0" x="1385.433037" y="67.322833">F 25</text><line x1="1417.3228" x2="1417.3228" y1="70.86614" y2="1559.05508" /><rect fill="gray" height="1488.18894" opacity="0.7" stroke="lightgray" stroke-width="1" width="35.43307" x="1417.3228" y="70.86614" /><text fill="black" font-family="Verdana" font-size="12" stroke="black" stroke-width="0" x="1420.866107" y="67.322833">S 26</text><line x1="1452.75587" x2="1452.75587" y1="70.86614" y2="1559.05508" /><rect fill="gray" height="1488.18894" opacity="0.7" stroke="lightgray" stroke-width="1" width="35.43307" x="1452.75587" y="70.86614" /><text fill="black" font-family="Verdana" font-size="12" stroke="black" stroke-width="0" x="1456.299177" y="67.322833">S 27</text><line x1="1488.18894" x2="1488.18894" y1="70.86614" y2="1559.05508" /><text fill="black" font-family="Verdana" font-size="12" stroke="black" stroke-width="0" x="1491.732247" y="67.322833">M 28</text><text fill="black" font-family="Verdana" font-size="16" font-weight="bold" stroke="black" stroke-width="0" x="1491.732247" y="53.149605">48</text><line x1="1523.62201" x2="1523.62201" y1="70.86614" y2="1559.05508" /><text fill="black" font-family="Verdana" font-size="12" stroke="black" stroke-width="0" x="1527.165317" y="67.322833">T 29</text><line x1="1559.05508" x2="1559.05508" y1="70.86614" y2="1559.05508" /><text fill="black" font-family="Verdana" font-size="12" stroke="black" stroke-width="0" x="1562.598387" y="67.322833">W 30</text><line x1="1594.4881500000001" x2="1594.4881500000001" y1="70.86614" y2="1559.05508" /><text fill="black" font-family="Verdana" font-size="12" stroke="black" stroke-width="0" x="1598.031457" y="67.322833">T 01</text><text fill="#800000" font-family="Verdana" font-size="18" font-weight="bold" stroke="#800000" stroke-width="0" x="1598.031457" y="35.43307">December</text><line x1="1629.92122" x2="1629.92122" y1="70.86614" y2="1559.05508" /><text fill="black" font-family="Verdana" font-size="12" stroke="black" stroke-width="0" x="1633.464527" y="67.322833">F 02</text><line x1="1665.35429" x2="1665.35429" y1="70.86614" y2="1559.05508" /><rect fill="gray" height="1488.18894" opacity="0.7" stroke="lightgray" stroke-width="1" width="35.43307" x="1665.35429" y="70.86614" /><text fill="black" font-family="Verdana" font-size="12" stroke="black" stroke-width="0" x="1668.897597" y="67.322833">S 03</text><line x1="1700.78736" x2="1700.78736" y1="70.86614" y2="1559.05508" /><rect fill="gray" height="1488.18894" opacity="0.7" stroke="lightgray" stroke-width="1" width="35.43307" x="1700.78736" y="70.86614" /><text fill="black" font-family="Verdana" font-size="12" stroke="black" stroke-width="0" x="1704.330667" y="67.322833">S 04</text><line x1="1736.22043" x2="1736.22043" y1="70.86614" y2="1559.05508" /><text fill="black" font-family="Verdana" font-size="12" stroke="black" stroke-width="0" x="1739.763737" y="67.322833">M 05</text><text fill="black" font-family="Verdana" font-size="16" font-weight="bold" stroke="black" stroke-width="0" x="1739.763737" y="53.149605">49</text><line x1="1771.6535000000001" x2="1771.6535000000001" y1="70.86614" y2="1559.05508" /><text fill="black" font-family="Verdana" font-size="12" stroke="black" stroke-width="0" x="1775.196807" y="67.322833">T 06</text><line x1="1807.08657" x2="1807.08657" y1="70.86614" y2="1559.05508" /><text fill="black" font-family="Verdana" font-size="12" stroke="black" stroke-width="0" x="1810.629877" y="67.322833">W 07</text><line x1="1842.51964" x2="1842.51964" y1="70.86614" y2="1559.05508" /><text fill="black" font-family="Verdana" font-size="12" stroke="black" stroke-width="0" x="1846.062947" y="67.322833">T 08</text><line x1="1877.95271" x2="1877.95271" y1="70.86614" y2="1559.05508" /><text fill="black" font-family="Verdana" font-size="12" stroke="black" stroke-width="0" x="1881.496017" y="67.322833">F 09</text><line x1="1913.38578" x2="1913.38578" y1="70.86614" y2="1559.05508" /></g><g id="hlines" stroke="lightgray"><line x1="0.0" x2="1913.38578" y1="70.86614" y2="70.86614" /><line x1="0.0" x2="1913.38578" y1="106.29921" y2="106.29921" /><line x1="0.0" x2="1913.38578" y1="141.73228" y2="141.73228" /><line x1="0.0" x2="1913.38578" y1="177.16535" y2="177.16535" /><line x1="0.0" x2="1913.38578" y1="212.59842" y2="212.59842" /><line x1="0.0" x2="1913.38578" y1="248.03149000000002" y2="248.03149000000002" /><line x1="0.0" x2="1913.38578" y1="283.46456" y2="283.46456" /><line x1="0.0" x2="1913.38578" y1="318.89763" y2="318.89763" /><line x1="0.0" x2="1913.38578" y1="354.3307" y2="354.3307" /><line x1="0.0" x2="1913.38578" y1="389.76377" y2="389.76377" /><line x1="0.0" x2="1913.38578" y1="425.19684" y2="425.19684" /><line x1="0.0" x2="1913.38578" y1="460.62991" y2="460.62991" /><line x1="0.0" x2="1913.38578" y1="496.06298000000004" y2="496.06298000000004" /><line x1="0.0" x2="1913.38578" y1="531.49605" y2="531.49605" /><line x1="0.0" x2="1913.38578" y1="566.92912" y2="566.92912" /><line x1="0.0" x2="1913.38578" y1="602.36219" y2="602.36219" /><line x1="0.0" x2="1913.38578" y1="637.79526" y2="637.79526" /><line x1="0.0" x2="1913.38578" y1="673.22833" y2="673.22833" /><line x1="0.0" x2="1913.38578" y1="708.6614" y2="708.6614" /><line x1="0.0" x2="1913.38578" y1="744.09447" y2="744.09447" /><line x1="0.0" x2="1913.38578" y1="779.52754" y2="779.52754" /><line x1="0.0" x2="1913.38578" y1="814.96061" y2="814.96061" /><line x1="0.0" x2="1913.38578" y1="850.39368" y2="850.39368" /><line x1="0.0" x2="1913.38578" y1="885.8267500000001" y2="885.8267500000001" /><line x1="0.0" x2="1913.38578" y1="921.25982" y2="921.25982" /><line x1="0.0" x2="1913.38578" y1="956.69289" y2="956.69289" /><line x1="0.0" x2="1913.38578" y1="992.1259600000001" y2="992.1259600000001" /><line x1="0.0" x2="1913.38578" y1="1027.5590300000001" y2="1027.5590300000001" /><line x1="0.0" x2="1913.38578" y1="1062.9921" y2="1062.9921" /><line x1="0.0" x2="1913.38578" y1="1098.42517" y2="1098.42517" /><line x1="0.0" x2="1913.38578" y1="1133.85824" y2="1133.85824" /><line x1="0.0" x2="1913.38578" y1="1169.29131" y2="1169.29131" /><line x1="0.0" x2="1913.38578" y1="1204.72438" y2="1204.72438" /><line x1="0.0" x2="1913.38578" y1="1240.15745" y2="1240.15745" /><line x1="0.0" x2="1913.38578" y1="1275.59052" y2="1275.59052" /><line x1="0.0" x2="1913.38578" y1="1311.02359" y2="1311.02359" /><line x1="0.0" x2="1913.38578" y1="1346.45666" y2="1346.45666" /><line x1="0.0" x2="1913.38578" y1="1381.88973" y2="1381.88973" /><line x1="0.0" x2="1913.38578" y1="1417.3228" y2="1417.3228" /><line x1="0.0" x2="1913.38578" y1="1452.75587" y2="1452.75587" /><line x1="0.0" x2="1913.38578" y1="1488.18894" y2="1488.18894" /><line x1="0.0" x2="1913.38578" y1="1523.62201" y2="1523.62201" /><line x1="0.0" x2="1913.38578" y1="1559.05508" y2="1559.05508" /></g><line stroke="black" x1="0.0" x2="1913.38578" y1="70.86614" y2="70.86614" /><line stroke="black" x1="0.0" x2="1913.38578" y1="1559.05508" y2="1559.05508" /></g><g><g><text fill="black" font-family="Verdana" font-size="18" stroke="black" stroke-width="0" x="10.629921" y="95.669289">Sphero RVR</text><rect fill="purple" height="1466.929098" opacity="0.5" stroke="lightgray" stroke-width="0" width="7.086614000000001" x="2.8346456" y="88.582675" /><g><g id="MAIN_PROGRAM__C++_"><rect fill="violet" height="28.346456" opacity="0.85" stroke="violet" stroke-width="2" width="1410.236186" x="3.543307" y="109.842517" /><rect fill="#909090" height="10.629921" opacity="0.2" stroke="violet" stroke-width="1" width="1410.236186" x="3.543307" y="127.559052" /><rect fill="#F08000" height="10.629921" opacity="0.35" stroke="violet" stroke-width="1" width="70.5118093" x="3.543307" y="127.559052" /><text fill="black" font-family="Verdana" font-size="15" stroke="black" stroke-width="0" x="7.086614" y="124.015745">MAIN PROGRAM (C++)</text><text fill="purple" font-family="Verdana" font-size="10" stroke="black" stroke-width="0" x="7.086614" y="136.4173195">HLR / VV / MMM</text></g><g id="Structure"><rect fill="lightgreen" height="28.346456" opacity="0.85" stroke="lightgreen" stroke-width="2" width="843.307066" x="3.543307" y="145.275587" /><rect fill="#909090" height="10.629921" opacity="0.2" stroke="lightgreen" stroke-width="1" width="843.307066" x="3.543307" y="162.992122" /><rect fill="#F08000" height="10.629921" opacity="0.35" stroke="lightgreen" stroke-width="1" width="126.4960599" x="3.543307" y="162.992122" /><text fill="black" font-family="Verdana" font-size="15" stroke="black" stroke-width="0" x="7.086614" y="159.448815">Structure</text><text fill="purple" font-family="Verdana" font-size="10" stroke="black" stroke-width="0" x="7.086614" y="171.8503895">VV</text></g><g id="Manual_control__arduino_"><rect fill="lightgreen" height="28.346456" opacity="0.85" stroke="lightgreen" stroke-width="2" width="418.110226" x="499.606287" y="180.708657" /><rect fill="#909090" height="10.629921" opacity="0.2" stroke="lightgreen" stroke-width="1" width="418.110226" x="499.606287" y="198.425192" /><rect fill="#F08000" height="10.629921" opacity="0.35" stroke="lightgreen" stroke-width="1" width="83.6220452" x="499.606287" y="198.425192" /><text fill="black" font-family="Verdana" font-size="15" stroke="black" stroke-width="0" x="503.149594" y="194.881885">Manual control (arduino)</text><text fill="purple" font-family="Verdana" font-size="10" stroke="black" stroke-width="0" x="503.149594" y="207.2834595">VV / MMM</text></g><g id="Input_handling"><rect fill="lightgreen" height="28.346456" opacity="0.85" stroke="lightgreen" stroke-width="2" width="488.976366" x="570.472427" y="216.141727" /><rect fill="#909090" height="10.629921" opacity="0.2" stroke="lightgreen" stroke-width="1" width="488.976366" x="570.472427" y="233.858262" /><text fill="black" font-family="Verdana" font-size="15" stroke="black" stroke-width="0" x="574.015734" y="230.314955">Input handling</text><text fill="purple" font-family="Verdana" font-size="10" stroke="black" stroke-width="0" x="574.015734" y="242.7165295">VV</text></g><g id="Crash_control"><rect fill="lightgreen" height="28.346456" opacity="0.85" stroke="lightgreen" stroke-width="2" width="347.244086" x="747.637777" y="251.574797" /><rect fill="#909090" height="10.629921" opacity="0.2" stroke="lightgreen" stroke-width="1" width="347.244086" x="747.637777" y="269.291332" /><text fill="black" font-family="Verdana" font-size="15" stroke="black" stroke-width="0" x="751.1810839999999" y="265.748025">Crash control</text><text fill="purple" font-family="Verdana" font-size="10" stroke="black" stroke-width="0" x="751.1810839999999" y="278.1495995">VV</text></g><g id="Object_recognition__openCV_"><rect fill="lightgreen" height="28.346456" opacity="0.85" stroke="lightgreen" stroke-width="2" width="595.275576" x="747.637777" y="287.007867" /><rect fill="#909090" height="10.629921" opacity="0.2" stroke="lightgreen" stroke-width="1" width="595.275576" x="747.637777" y="304.724402" /><text fill="black" font-family="Verdana" font-size="15" stroke="black" stroke-width="0" x="751.1810839999999" y="301.18109499999997">Object recognition (openCV)</text><text fill="purple" font-family="Verdana" font-size="10" stroke="black" stroke-width="0" x="751.1810839999999" y="313.5826695">VV</text></g><g id="Movement"><rect fill="lightgreen" height="28.346456" opacity="0.85" stroke="lightgreen" stroke-width="2" width="524.409436" x="818.503917" y="322.440937" /><rect fill="#909090" height="10.629921" opacity="0.2" stroke="lightgreen" stroke-width="1" width="524.409436" x="818.503917" y="340.157472" /><text fill="black" font-family="Verdana" font-size="15" stroke="black" stroke-width="0" x="822.047224" y="336.614165">Movement</text><text fill="purple" font-family="Verdana" font-size="10" stroke="black" stroke-width="0" x="822.047224" y="349.0157395">VV</text></g><g id="Lifting_and_placing"><rect fill="lightgreen" height="28.346456" opacity="0.85" stroke="lightgreen" stroke-width="2" width="418.110226" x="995.669267" y="357.874007" /><rect fill="#909090" height="10.629921" opacity="0.2" stroke="lightgreen" stroke-width="1" width="418.110226" x="995.669267" y="375.59054199999997" /><text fill="black" font-family="Verdana" font-size="15" stroke="black" stroke-width="0" x="999.212574" y="372.047235">Lifting and placing</text><text fill="purple" font-family="Verdana" font-size="10" stroke="black" stroke-width="0" x="999.212574" y="384.4488095">VV</text></g><g id="GUI__C++__Qt_"><rect fill="violet" height="28.346456" opacity="0.85" stroke="violet" stroke-width="2" width="1410.236186" x="3.543307" y="393.307077" /><rect fill="#909090" height="10.629921" opacity="0.2" stroke="violet" stroke-width="1" width="1410.236186" x="3.543307" y="411.023612" /><rect fill="#F08000" height="10.629921" opacity="0.35" stroke="violet" stroke-width="1" width="1057.6771395" x="3.543307" y="411.023612" /><text fill="black" font-family="Verdana" font-size="15" stroke="black" stroke-width="0" x="7.086614" y="407.480305">GUI (C++, Qt)</text><text fill="purple" font-family="Verdana" font-size="10" stroke="black" stroke-width="0" x="7.086614" y="419.8818795">MMM</text></g><g id="Test_values"><rect fill="lightgreen" height="28.346456" opacity="0.85" stroke="lightgreen" stroke-width="2" width="347.244086" x="3.543307" y="428.740147" /><rect fill="#909090" height="10.629921" opacity="0.2" stroke="lightgreen" stroke-width="1" width="347.244086" x="3.543307" y="446.456682" /><text fill="black" font-family="Verdana" font-size="15" stroke="black" stroke-width="0" x="7.086614" y="442.913375">Test values</text><text fill="purple" font-family="Verdana" font-size="10" stroke="black" stroke-width="0" x="7.086614" y="455.3149495">MMM</text></g><g id="Layout"><rect fill="lightgreen" height="28.346456" opacity="0.85" stroke="lightgreen" stroke-width="2" width="170.078736" x="251.574797" y="464.173217" /><rect fill="#909090" height="10.629921" opacity="0.2" stroke="lightgreen" stroke-width="1" width="170.078736" x="251.574797" y="481.889752" /><text fill="black" font-family="Verdana" font-size="15" stroke="black" stroke-width="0" x="255.118104" y="478.346445">Layout</text><text fill="purple" font-family="Verdana" font-size="10" stroke="black" stroke-width="0" x="255.118104" y="490.7480195">MMM</text></g><g id="Video_display"><rect fill="lightgreen" height="28.346456" opacity="0.85" stroke="lightgreen" stroke-width="2" width="382.677156" x="287.007867" y="499.606287" /><rect fill="#909090" height="10.629921" opacity="0.2" stroke="lightgreen" stroke-width="1" width="382.677156" x="287.007867" y="517.322822" /><text fill="black" font-family="Verdana" font-size="15" stroke="black" stroke-width="0" x="290.551174" y="513.779515">Video display</text><text fill="purple" font-family="Verdana" font-size="10" stroke="black" stroke-width="0" x="290.551174" y="526.1810895">MMM</text></g><g id="Buttons_and_meters"><rect fill="lightgreen" height="28.346456" opacity="0.85" stroke="lightgreen" stroke-width="2" width="418.110226" x="499.606287" y="535.039357" /><rect fill="#909090" height="10.629921" opacity="0.2" stroke="lightgreen" stroke-width="1" width="418.110226" x="499.606287" y="552.755892" /><text fill="black" font-family="Verdana" font-size="15" stroke="black" stroke-width="0" x="503.149594" y="549.212585">Buttons and meters</text><text fill="purple" font-family="Verdana" font-size="10" stroke="black" stroke-width="0" x="503.149594" y="561.6141595">MMM</text></g><g id="Error_handling"><rect fill="lightgreen" height="28.346456" opacity="0.85" stroke="lightgreen" stroke-width="2" width="418.110226" x="747.637777" y="570.472427" /><rect fill="#909090" height="10.629921" opacity="0.2" stroke="lightgreen" stroke-width="1" width="418.110226" x="747.637777" y="588.188962" /><text fill="black" font-family="Verdana" font-size="15" stroke="black" stroke-width="0" x="751.1810839999999" y="584.645655">Error handling</text><text fill="purple" font-family="Verdana" font-size="10" stroke="black" stroke-width="0" x="751.1810839999999" y="597.0472295">MMM</text></g><g id="RASPBERRY_PI__python_"><rect fill="violet" height="28.346456" opacity="0.85" stroke="violet" stroke-width="2" width="1410.236186" x="3.543307" y="605.905497" /><rect fill="#909090" height="10.629921" opacity="0.2" stroke="violet" stroke-width="1" width="1410.236186" x="3.543307" y="623.622032" /><rect fill="#F08000" height="10.629921" opacity="0.35" stroke="violet" stroke-width="1" width="282.0472372" x="3.543307" y="623.622032" /><text fill="black" font-family="Verdana" font-size="15" stroke="black" stroke-width="0" x="7.086614" y="620.078725">RASPBERRY PI (python)</text><text fill="purple" font-family="Verdana" font-size="10" stroke="black" stroke-width="0" x="7.086614" y="632.4802995">HLR</text></g><g id="Contact_and_test_values"><rect fill="lightgreen" height="28.346456" opacity="0.85" stroke="lightgreen" stroke-width="2" width="666.141716" x="3.543307" y="641.338567" /><rect fill="#909090" height="10.629921" opacity="0.2" stroke="lightgreen" stroke-width="1" width="666.141716" x="3.543307" y="659.055102" /><text fill="black" font-family="Verdana" font-size="15" stroke="black" stroke-width="0" x="7.086614" y="655.511795">Contact and test values</text><text fill="purple" font-family="Verdana" font-size="10" stroke="black" stroke-width="0" x="7.086614" y="667.9133695">HLR</text></g><g id="Input_handling"><rect fill="lightgreen" height="28.346456" opacity="0.85" stroke="lightgreen" stroke-width="2" width="347.244086" x="499.606287" y="676.7716369999999" /><rect fill="#909090" height="10.629921" opacity="0.2" stroke="lightgreen" stroke-width="1" width="347.244086" x="499.606287" y="694.488172" /><text fill="black" font-family="Verdana" font-size="15" stroke="black" stroke-width="0" x="503.149594" y="690.944865">Input handling</text><text fill="purple" font-family="Verdana" font-size="10" stroke="black" stroke-width="0" x="503.149594" y="703.3464395">HLR</text></g><g id="Video_transmission"><rect fill="lightgreen" height="28.346456" opacity="0.85" stroke="lightgreen" stroke-width="2" width="347.244086" x="570.472427" y="712.204707" /><rect fill="#909090" height="10.629921" opacity="0.2" stroke="lightgreen" stroke-width="1" width="347.244086" x="570.472427" y="729.921242" /><rect fill="#F08000" height="10.629921" opacity="0.35" stroke="lightgreen" stroke-width="1" width="69.44881720000001" x="570.472427" y="729.921242" /><text fill="black" font-family="Verdana" font-size="15" stroke="black" stroke-width="0" x="574.015734" y="726.377935">Video transmission</text><text fill="purple" font-family="Verdana" font-size="10" stroke="black" stroke-width="0" x="574.015734" y="738.7795095">HLR</text></g><g id="Sensor_data_transmission"><rect fill="lightgreen" height="28.346456" opacity="0.85" stroke="lightgreen" stroke-width="2" width="418.110226" x="747.637777" y="747.637777" /><rect fill="#909090" height="10.629921" opacity="0.2" stroke="lightgreen" stroke-width="1" width="418.110226" x="747.637777" y="765.354312" /><text fill="black" font-family="Verdana" font-size="15" stroke="black" stroke-width="0" x="751.1810839999999" y="761.811005">Sensor data transmission</text><text fill="purple" font-family="Verdana" font-size="10" stroke="black" stroke-width="0" x="751.1810839999999" y="774.2125795">HLR</text></g><g id="PHYSICAL_DESIGN"><rect fill="violet" height="28.346456" opacity="0.85" stroke="violet" stroke-width="2" width="1410.236186" x="3.543307" y="783.070847" /><rect fill="#909090" height="10.629921" opacity="0.2" stroke="violet" stroke-width="1" width="1410.236186" x="3.543307" y="800.787382" /><rect fill="#F08000" height="10.629921" opacity="0.35" stroke="violet" stroke-width="1" width="423.0708558" x="3.543307" y="800.787382" /><text fill="black" font-family="Verdana" font-size="15" stroke="black" stroke-width="0" x="7.086614" y="797.244075">PHYSICAL DESIGN</text><text fill="purple" font-family="Verdana" font-size="10" stroke="black" stroke-width="0" x="7.086614" y="809.6456495">VV</text></g><g id="Design__drawing_"><rect fill="lightgreen" height="28.346456" opacity="0.85" stroke="lightgreen" stroke-width="2" width="807.873996" x="3.543307" y="818.503917" /><rect fill="#909090" height="10.629921" opacity="0.2" stroke="lightgreen" stroke-width="1" width="807.873996" x="3.543307" y="836.220452" /><rect fill="#F08000" height="10.629921" opacity="0.35" stroke="lightgreen" stroke-width="1" width="161.5747992" x="3.543307" y="836.220452" /><text fill="black" font-family="Verdana" font-size="15" stroke="black" stroke-width="0" x="7.086614" y="832.677145">Design (drawing)</text><text fill="purple" font-family="Verdana" font-size="10" stroke="black" stroke-width="0" x="7.086614" y="845.0787195">VV</text></g><g id="3D-print"><rect fill="lightgreen" height="28.346456" opacity="0.85" stroke="lightgreen" stroke-width="2" width="666.141716" x="251.574797" y="853.936987" /><rect fill="#909090" height="10.629921" opacity="0.2" stroke="lightgreen" stroke-width="1" width="666.141716" x="251.574797" y="871.653522" /><text fill="black" font-family="Verdana" font-size="15" stroke="black" stroke-width="0" x="255.118104" y="868.110215">3D-print</text><text fill="purple" font-family="Verdana" font-size="10" stroke="black" stroke-width="0" x="255.118104" y="880.5117895">VV</text></g><g id="Mounting"><rect fill="lightgreen" height="28.346456" opacity="0.85" stroke="lightgreen" stroke-width="2" width="418.110226" x="747.637777" y="889.370057" /><rect fill="#909090" height="10.629921" opacity="0.2" stroke="lightgreen" stroke-width="1" width="418.110226" x="747.637777" y="907.086592" /><text fill="black" font-family="Verdana" font-size="15" stroke="black" stroke-width="0" x="751.1810839999999" y="903.543285">Mounting</text><text fill="purple" font-family="Verdana" font-size="10" stroke="black" stroke-width="0" x="751.1810839999999" y="915.9448595">VV</text></g><g id="MEETINGS_AND_REPORTS"><rect fill="violet" height="28.346456" opacity="0.85" stroke="violet" stroke-width="2" width="1906.299166" x="3.543307" y="924.803127" /><rect fill="#909090" height="10.629921" opacity="0.2" stroke="violet" stroke-width="1" width="1906.299166" x="3.543307" y="942.519662" /><text fill="black" font-family="Verdana" font-size="15" stroke="black" stroke-width="0" x="7.086614" y="938.976355">MEETINGS AND REPORTS</text><text fill="purple" font-family="Verdana" font-size="10" stroke="black" stroke-width="0" x="7.086614" y="951.3779295">HLR / VV / MMM</text></g><g id="Prog.Rep."><rect fill="lightgreen" height="28.346456" opacity="0.85" stroke="lightgreen" stroke-width="2" width="63.779526" x="38.976377" y="960.236197" /><rect fill="#909090" height="10.629921" opacity="0.2" stroke="lightgreen" stroke-width="1" width="63.779526" x="38.976377" y="977.952732" /><text fill="black" font-family="Verdana" font-size="15" stroke="black" stroke-width="0" x="42.519684" y="974.4094249999999">Prog.Rep.</text><text fill="purple" font-family="Verdana" font-size="10" stroke="black" stroke-width="0" x="42.519684" y="986.8109995">HLR / VV / MMM</text></g><g id="Meeting"><rect fill="lightgreen" height="28.346456" opacity="0.85" stroke="lightgreen" stroke-width="2" width="28.346456" x="322.440937" y="995.669267" /><rect fill="#909090" height="10.629921" opacity="0.2" stroke="lightgreen" stroke-width="1" width="28.346456" x="322.440937" y="1013.385802" /><text fill="black" font-family="Verdana" font-size="15" stroke="black" stroke-width="0" x="325.984244" y="1009.842495">Meeting</text><text fill="purple" font-family="Verdana" font-size="10" stroke="black" stroke-width="0" x="325.984244" y="1022.2440695">HLR / VV / MMM</text></g><g id="Prog.Rep."><rect fill="lightgreen" height="28.346456" opacity="0.85" stroke="lightgreen" stroke-width="2" width="63.779526" x="535.039357" y="1031.102337" /><rect fill="#909090" height="10.629921" opacity="0.2" stroke="lightgreen" stroke-width="1" width="63.779526" x="535.039357" y="1048.818872" /><text fill="black" font-family="Verdana" font-size="15" stroke="black" stroke-width="0" x="538.582664" y="1045.275565">Prog.Rep.</text><text fill="purple" font-family="Verdana" font-size="10" stroke="black" stroke-width="0" x="538.582664" y="1057.6771395">HLR / VV / MMM</text></g><g id="Meeting"><rect fill="lightgreen" height="28.346456" opacity="0.85" stroke="lightgreen" stroke-width="2" width="28.346456" x="818.503917" y="1066.535407" /><rect fill="#909090" height="10.629921" opacity="0.2" stroke="lightgreen" stroke-width="1" width="28.346456" x="818.503917" y="1084.251942" /><text fill="black" font-family="Verdana" font-size="15" stroke="black" stroke-width="0" x="822.047224" y="1080.708635">Meeting</text><text fill="purple" font-family="Verdana" font-size="10" stroke="black" stroke-width="0" x="822.047224" y="1093.1102094999999">HLR / VV / MMM</text></g><g id="Prog.Rep."><rect fill="lightgreen" height="28.346456" opacity="0.85" stroke="lightgreen" stroke-width="2" width="63.779526" x="1031.102337" y="1101.968477" /><rect fill="#909090" height="10.629921" opacity="0.2" stroke="lightgreen" stroke-width="1" width="63.779526" x="1031.102337" y="1119.685012" /><text fill="black" font-family="Verdana" font-size="15" stroke="black" stroke-width="0" x="1034.645644" y="1116.141705">Prog.Rep.</text><text fill="purple" font-family="Verdana" font-size="10" stroke="black" stroke-width="0" x="1034.645644" y="1128.5432795">HLR / VV / MMM</text></g><g id="Meeting"><rect fill="lightgreen" height="28.346456" opacity="0.85" stroke="lightgreen" stroke-width="2" width="28.346456" x="1314.566897" y="1137.401547" /><rect fill="#909090" height="10.629921" opacity="0.2" stroke="lightgreen" stroke-width="1" width="28.346456" x="1314.566897" y="1155.118082" /><text fill="black" font-family="Verdana" font-size="15" stroke="black" stroke-width="0" x="1318.110204" y="1151.574775">Meeting</text><text fill="purple" font-family="Verdana" font-size="10" stroke="black" stroke-width="0" x="1318.110204" y="1163.9763495">HLR / VV / MMM</text></g><g id="Project_report"><rect fill="lightgreen" height="28.346456" opacity="0.85" stroke="lightgreen" stroke-width="2" width="488.976366" x="1349.999967" y="1172.834617" /><rect fill="#909090" height="10.629921" opacity="0.2" stroke="lightgreen" stroke-width="1" width="488.976366" x="1349.999967" y="1190.551152" /><text fill="black" font-family="Verdana" font-size="15" stroke="black" stroke-width="0" x="1353.5432739999999" y="1187.007845">Project report</text><text fill="purple" font-family="Verdana" font-size="10" stroke="black" stroke-width="0" x="1353.5432739999999" y="1199.4094195">HLR / VV / MMM</text></g><g id="Prog.Rep."><rect fill="lightgreen" height="28.346456" opacity="0.85" stroke="lightgreen" stroke-width="2" width="63.779526" x="1527.165317" y="1208.267687" /><rect fill="#909090" height="10.629921" opacity="0.2" stroke="lightgreen" stroke-width="1" width="63.779526" x="1527.165317" y="1225.984222" /><text fill="black" font-family="Verdana" font-size="15" stroke="black" stroke-width="0" x="1530.708624" y="1222.440915">Prog.Rep.</text><text fill="purple" font-family="Verdana" font-size="10" stroke="black" stroke-width="0" x="1530.708624" y="1234.8424895">HLR / VV / MMM</text></g><g id="Meeting"><rect fill="lightgreen" height="28.346456" opacity="0.85" stroke="lightgreen" stroke-width="2" width="28.346456" x="1810.629877" y="1243.700757" /><rect fill="#909090" height="10.629921" opacity="0.2" stroke="lightgreen" stroke-width="1" width="28.346456" x="1810.629877" y="1261.417292" /><text fill="black" font-family="Verdana" font-size="15" stroke="black" stroke-width="0" x="1814.173184" y="1257.873985">Meeting</text><text fill="purple" font-family="Verdana" font-size="10" stroke="black" stroke-width="0" x="1814.173184" y="1270.2755595">HLR / VV / MMM</text></g><g id="Manual_control"><polygon fill="#FF3030" opacity="0.85" points="1009.842495,1282.677134 1020.472416,1293.307055 1009.842495,1303.936976 999.212574,1293.307055" stroke="#FF3030" stroke-width="2" /><text fill="black" font-family="Verdana" font-size="15" stroke="black" stroke-width="0" x="999.212574" y="1293.307055">Manual control</text></g><g id="Working_GUI"><polygon fill="#FF3030" opacity="0.85" points="761.811005,1353.5432739999999 772.440926,1364.173195 761.811005,1374.803116 751.1810839999999,1364.173195" stroke="#FF3030" stroke-width="2" /><text fill="black" font-family="Verdana" font-size="15" stroke="black" stroke-width="0" x="751.1810839999999" y="1364.173195">Working GUI</text></g><g id="Autonomic_task_performance"><polygon fill="#FF3030" opacity="0.85" points="1505.905475,1424.409414 1516.535396,1435.039335 1505.905475,1445.669256 1495.275554,1435.039335" stroke="#FF3030" stroke-width="2" /><text fill="black" font-family="Verdana" font-size="15" stroke="black" stroke-width="0" x="1495.275554" y="1435.039335">Autonomic task performance</text></g><g id="Finished_project_report"><polygon fill="#FF3030" opacity="0.85" points="1505.905475,1495.275554 1516.535396,1505.905475 1505.905475,1516.535396 1495.275554,1505.905475" stroke="#FF3030" stroke-width="2" /><text fill="black" font-family="Verdana" font-size="15" stroke="black" stroke-width="0" x="1495.275554" y="1505.905475">Finished project report</text></g></g></g><g><g><line stroke="black" stroke-dasharray="5,3" x1="914.173206" x2="1009.842495" y1="194.881885" y2="194.881885" /><marker id="id1" markerHeight="10" markerWidth="10" refX="5" refY="5"><circle cx="5" cy="5" fill="#000000" opacity="0.5" r="5" stroke-width="0" /></marker><line marker-end="url(#id1)" stroke="black" stroke-dasharray="5,3" x1="1009.842495" x2="1009.842495" y1="194.881885" y2="1275.59052" /><line stroke="black" stroke-dasharray="5,3" x1="843.307066" x2="1009.842495" y1="690.944865" y2="690.944865" /><marker id="id2" markerHeight="10" markerWidth="10" refX="5" refY="5"><circle cx="5" cy="5" fill="#000000" opacity="0.5" r="5" stroke-width="0" /></marker><line marker-end="url(#id2)" stroke="black" stroke-dasharray="5,3" x1="1009.842495" x2="1009.842495" y1="690.944865" y2="1275.59052" /></g><g><line stroke="black" stroke-dasharray="5,3" x1="666.141716" x2="761.811005" y1="513.779515" y2="513.779515" /><marker id="id3" markerHeight="10" markerWidth="10" refX="5" refY="5"><circle cx="5" cy="5" fill="#000000" opacity="0.5" r="5" stroke-width="0" /></marker><line marker-end="url(#id3)" stroke="black" stroke-dasharray="5,3" x1="761.811005" x2="761.811005" y1="513.779515" y2="1346.45666" /></g><g><line stroke="black" stroke-dasharray="5,3" x1="1339.370046" x2="1505.905475" y1="336.614165" y2="336.614165" /><marker id="id4" markerHeight="10" markerWidth="10" refX="5" refY="5"><circle cx="5" cy="5" fill="#000000" opacity="0.5" r="5" stroke-width="0" /></marker><line marker-end="url(#id4)" stroke="black" stroke-dasharray="5,3" x1="1505.905475" x2="1505.905475" y1="336.614165" y2="1417.3228" /><line stroke="black" stroke-dasharray="5,3" x1="1410.236186" x2="1505.905475" y1="372.047235" y2="372.047235" /><marker id="id5" markerHeight="10" markerWidth="10" refX="5" refY="5"><circle cx="5" cy="5" fill="#000000" opacity="0.5" r="5" stroke-width="0" /></marker><line marker-end="url(#id5)" stroke="black" stroke-dasharray="5,3" x1="1505.905475" x2="1505.905475" y1="372.047235" y2="1417.3228" /><line stroke="black" stroke-dasharray="5,3" x1="1162.204696" x2="1505.905475" y1="903.543285" y2="903.543285" /><marker id="id6" markerHeight="10" markerWidth="10" refX="5" refY="5"><circle cx="5" cy="5" fill="#000000" opacity="0.5" r="5" stroke-width="0" /></marker><line marker-end="url(#id6)" stroke="black" stroke-dasharray="5,3" x1="1505.905475" x2="1505.905475" y1="903.543285" y2="1417.3228" /></g><g><line stroke="black" stroke-dasharray="5,3" x1="1410.236186" x2="1505.905475" y1="124.015745" y2="124.015745" /><marker id="id7" markerHeight="10" markerWidth="10" refX="5" refY="5"><circle cx="5" cy="5" fill="#000000" opacity="0.5" r="5" stroke-width="0" /></marker><line marker-end="url(#id7)" stroke="black" stroke-dasharray="5,3" x1="1505.905475" x2="1505.905475" y1="124.015745" y2="1488.18894" /><line stroke="black" stroke-dasharray="5,3" x1="1410.236186" x2="1505.905475" y1="407.480305" y2="407.480305" /><marker id="id8" markerHeight="10" markerWidth="10" refX="5" refY="5"><circle cx="5" cy="5" fill="#000000" opacity="0.5" r="5" stroke-width="0" /></marker><line marker-end="url(#id8)" stroke="black" stroke-dasharray="5,3" x1="1505.905475" x2="1505.905475" y1="407.480305" y2="1488.18894" /><line stroke="black" stroke-dasharray="5,3" x1="1410.236186" x2="1505.905475" y1="620.078725" y2="620.078725" /><marker id="id9" markerHeight="10" markerWidth="10" refX="5" refY="5"><circle cx="5" cy="5" fill="#000000" opacity="0.5" r="5" stroke-width="0" /></marker><line marker-end="url(#id9)" stroke="black" stroke-dasharray="5,3" x1="1505.905475" x2="1505.905475" y1="620.078725" y2="1488.18894" /></g></g></g></svg>